<svg xmlns="http://www.w3.org/2000/svg" xmlns:xlink="http://www.w3.org/1999/xlink" width="2000" zoomAndPan="magnify" viewBox="0 0 1500 1499.999933" height="2000" preserveAspectRatio="xMidYMid meet" version="1.0"><defs><clipPath id="a5238911f7"><path d="M 0.238281 0.121094 L 646 0.121094 L 646 647 L 0.238281 647 Z M 0.238281 0.121094 " clip-rule="nonzero"/></clipPath><clipPath id="9b77b664cb"><path d="M 0.238281 59 L 1069 59 L 1069 1349.878906 L 0.238281 1349.878906 Z M 0.238281 59 " clip-rule="nonzero"/></clipPath><clipPath id="3d3221cc20"><path d="M 283 0.121094 L 1344.238281 0.121094 L 1344.238281 1081 L 283 1081 Z M 283 0.121094 " clip-rule="nonzero"/></clipPath><clipPath id="48147d6b8a"><path d="M 0.238281 0.121094 L 1344.238281 0.121094 L 1344.238281 1349.878906 L 0.238281 1349.878906 Z M 0.238281 0.121094 " clip-rule="nonzero"/></clipPath><clipPath id="b77bfc3a67"><rect x="0" width="1345" y="0" height="1350"/></clipPath></defs><g transform="matrix(1, 0, 0, 1, 78, 75)"><g clip-path="url(#b77bfc3a67)"><path stroke-linecap="round" transform="matrix(0, -1.137377, 1.137377, 0, 20.697674, 1333.634499)" fill="none" stroke-linejoin="miter" d="M 44.501495 44.50137 L 784.938834 44.50137 " stroke="#000000" stroke-width="89" stroke-opacity="1" stroke-miterlimit="4"/><path stroke-linecap="round" transform="matrix(0, -1.137377, 1.137377, 0, 1239.00964, 887.211401)" fill="none" stroke-linejoin="miter" d="M 44.50042 44.498405 L 703.095103 44.498405 " stroke="#000000" stroke-width="89" stroke-opacity="1" stroke-miterlimit="4"/><g clip-path="url(#a5238911f7)"><path stroke-linecap="round" transform="matrix(-0.601633, -0.965228, 0.965228, -0.601633, 56.2734, 143.448888)" fill="none" stroke-linejoin="miter" d="M 44.500821 44.500258 L 48.322251 44.498513 " stroke="#000000" stroke-width="89" stroke-opacity="1" stroke-miterlimit="4"/></g><g clip-path="url(#9b77b664cb)"><path stroke-linecap="round" transform="matrix(-0.804247, -0.804247, 0.804247, -0.804247, 496.044128, 923.00135)" fill="none" stroke-linejoin="miter" d="M 44.501652 44.50021 L 317.204353 44.50021 " stroke="#000000" stroke-width="89" stroke-opacity="1" stroke-miterlimit="4"/></g><g clip-path="url(#3d3221cc20)"><path stroke-linecap="round" transform="matrix(0.804247, -0.804247, 0.804247, 0.804247, 784.431511, 507.604202)" fill="none" stroke-linejoin="miter" d="M 44.49817 44.499746 L 561.723095 44.499746 " stroke="#000000" stroke-width="89" stroke-opacity="1" stroke-miterlimit="4"/></g><g clip-path="url(#48147d6b8a)"><path stroke-linecap="round" transform="matrix(-0.804247, -0.804247, 0.804247, -0.804247, 1271.978245, 1349.683801)" fill="none" stroke-linejoin="miter" d="M 44.501267 44.499175 L 1282.006463 44.501603 " stroke="#000000" stroke-width="89" stroke-opacity="1" stroke-miterlimit="4"/></g></g></g></svg>