<svg xmlns="http://www.w3.org/2000/svg" xmlns:xlink="http://www.w3.org/1999/xlink" width="2000" zoomAndPan="magnify" viewBox="0 0 1500 1499.999933" height="2000" preserveAspectRatio="xMidYMid meet" version="1.0"><defs><g/></defs><path stroke-linecap="round" transform="matrix(0, -0.75, 0.75, 0, 320.523462, 1019.311644)" fill="none" stroke-linejoin="miter" d="M 44.498863 44.499972 L 784.941635 44.499972 " stroke="#000000" stroke-width="89" stroke-opacity="1" stroke-miterlimit="4"/><path stroke-linecap="round" transform="matrix(0, -0.75, 0.75, 0, 1123.892865, 724.934798)" fill="none" stroke-linejoin="miter" d="M 44.501609 44.502226 L 703.095416 44.502226 " stroke="#000000" stroke-width="89" stroke-opacity="1" stroke-miterlimit="4"/><path stroke-linecap="round" transform="matrix(-0.396724, -0.636483, 0.636483, -0.396724, 343.982524, 234.488895)" fill="none" stroke-linejoin="miter" d="M 44.499034 44.500265 L 48.321656 44.501679 " stroke="#000000" stroke-width="89" stroke-opacity="1" stroke-miterlimit="4"/><path stroke-linecap="round" transform="matrix(-0.53033, -0.53033, 0.53033, -0.53033, 633.972627, 748.535124)" fill="none" stroke-linejoin="miter" d="M 44.499795 44.499851 L 317.207333 44.499851 " stroke="#000000" stroke-width="89" stroke-opacity="1" stroke-miterlimit="4"/><path stroke-linecap="round" transform="matrix(0.53033, -0.53033, 0.53033, 0.53033, 824.138746, 474.617291)" fill="none" stroke-linejoin="miter" d="M 44.501723 44.501527 L 561.720913 44.501527 " stroke="#000000" stroke-width="89" stroke-opacity="1" stroke-miterlimit="4"/><path stroke-linecap="round" transform="matrix(-0.53033, -0.53033, 0.53033, -0.53033, 1145.632903, 1029.894611)" fill="none" stroke-linejoin="miter" d="M 44.500014 44.499844 L 1282.003274 44.499844 " stroke="#000000" stroke-width="89" stroke-opacity="1" stroke-miterlimit="4"/><g fill="#000000" fill-opacity="1"><g transform="translate(118.198772, 1294.646364)"><g><path d="M 30.484375 1.6875 C 25.679688 1.6875 22 0.25 19.4375 -2.625 C 16.875 -5.507812 15.59375 -9.515625 15.59375 -14.640625 L 15.59375 -102.71875 C 15.59375 -108 16.875 -112.039062 19.4375 -114.84375 C 22 -117.644531 25.679688 -119.046875 30.484375 -119.046875 C 35.285156 -119.046875 39.003906 -117.644531 41.640625 -114.84375 C 44.273438 -112.039062 45.59375 -108 45.59375 -102.71875 L 45.59375 -14.640625 C 45.59375 -9.515625 44.3125 -5.507812 41.75 -2.625 C 39.195312 0.25 35.441406 1.6875 30.484375 1.6875 Z M 30.484375 -141.359375 C 24.878906 -141.359375 20.515625 -142.757812 17.390625 -145.5625 C 14.273438 -148.363281 12.71875 -152.242188 12.71875 -157.203125 C 12.71875 -162.316406 14.273438 -166.234375 17.390625 -168.953125 C 20.515625 -171.679688 24.878906 -173.046875 30.484375 -173.046875 C 36.242188 -173.046875 40.640625 -171.679688 43.671875 -168.953125 C 46.710938 -166.234375 48.234375 -162.316406 48.234375 -157.203125 C 48.234375 -152.242188 46.710938 -148.363281 43.671875 -145.5625 C 40.640625 -142.757812 36.242188 -141.359375 30.484375 -141.359375 Z M 30.484375 -141.359375 "/></g></g></g><g fill="#000000" fill-opacity="1"><g transform="translate(230.758672, 1294.646364)"><g><path d="M 32.875 1.921875 C 28.394531 1.921875 24.953125 0.640625 22.546875 -1.921875 C 20.148438 -4.484375 18.953125 -8.003906 18.953125 -12.484375 L 18.953125 -156.71875 C 18.953125 -161.363281 20.234375 -164.925781 22.796875 -167.40625 C 25.359375 -169.882812 28.878906 -171.125 33.359375 -171.125 C 37.359375 -171.125 40.515625 -170.363281 42.828125 -168.84375 C 45.148438 -167.320312 47.273438 -164.722656 49.203125 -161.046875 L 108.484375 -51.359375 L 100.796875 -51.359375 L 160.078125 -161.046875 C 161.992188 -164.722656 164.070312 -167.320312 166.3125 -168.84375 C 168.5625 -170.363281 171.6875 -171.125 175.6875 -171.125 C 180.164062 -171.125 183.601562 -169.882812 186 -167.40625 C 188.394531 -164.925781 189.59375 -161.363281 189.59375 -156.71875 L 189.59375 -12.484375 C 189.59375 -8.003906 188.429688 -4.484375 186.109375 -1.921875 C 183.796875 0.640625 180.320312 1.921875 175.6875 1.921875 C 171.195312 1.921875 167.753906 0.640625 165.359375 -1.921875 C 162.960938 -4.484375 161.765625 -8.003906 161.765625 -12.484375 L 161.765625 -123.59375 L 167.046875 -123.59375 L 116.640625 -31.6875 C 115.035156 -28.957031 113.351562 -26.953125 111.59375 -25.671875 C 109.832031 -24.398438 107.4375 -23.765625 104.40625 -23.765625 C 101.363281 -23.765625 98.878906 -24.441406 96.953125 -25.796875 C 95.035156 -27.160156 93.359375 -29.125 91.921875 -31.6875 L 41.046875 -123.84375 L 46.796875 -123.84375 L 46.796875 -12.484375 C 46.796875 -8.003906 45.632812 -4.484375 43.3125 -1.921875 C 41 0.640625 37.519531 1.921875 32.875 1.921875 Z M 32.875 1.921875 "/></g></g></g><g fill="#000000" fill-opacity="1"><g transform="translate(490.43832, 1294.646364)"><g><path d="M 54.234375 2.40625 C 45.753906 2.40625 38.191406 0.765625 31.546875 -2.515625 C 24.910156 -5.796875 19.710938 -10.234375 15.953125 -15.828125 C 12.191406 -21.429688 10.3125 -27.753906 10.3125 -34.796875 C 10.3125 -43.441406 12.550781 -50.28125 17.03125 -55.3125 C 21.519531 -60.351562 28.800781 -63.992188 38.875 -66.234375 C 48.957031 -68.472656 62.476562 -69.59375 79.4375 -69.59375 L 91.4375 -69.59375 L 91.4375 -52.3125 L 79.6875 -52.3125 C 69.757812 -52.3125 61.835938 -51.832031 55.921875 -50.875 C 50.003906 -49.914062 45.800781 -48.273438 43.3125 -45.953125 C 40.832031 -43.640625 39.59375 -40.398438 39.59375 -36.234375 C 39.59375 -30.953125 41.429688 -26.628906 45.109375 -23.265625 C 48.796875 -19.910156 53.921875 -18.234375 60.484375 -18.234375 C 65.765625 -18.234375 70.441406 -19.472656 74.515625 -21.953125 C 78.597656 -24.441406 81.835938 -27.84375 84.234375 -32.15625 C 86.640625 -36.476562 87.84375 -41.441406 87.84375 -47.046875 L 87.84375 -74.640625 C 87.84375 -82.640625 86.082031 -88.398438 82.5625 -91.921875 C 79.039062 -95.441406 73.117188 -97.203125 64.796875 -97.203125 C 60.160156 -97.203125 55.160156 -96.640625 49.796875 -95.515625 C 44.441406 -94.398438 38.800781 -92.484375 32.875 -89.765625 C 29.832031 -88.316406 27.148438 -87.910156 24.828125 -88.546875 C 22.515625 -89.191406 20.71875 -90.515625 19.4375 -92.515625 C 18.15625 -94.515625 17.515625 -96.710938 17.515625 -99.109375 C 17.515625 -101.515625 18.15625 -103.878906 19.4375 -106.203125 C 20.71875 -108.523438 22.878906 -110.242188 25.921875 -111.359375 C 33.273438 -114.398438 40.351562 -116.5625 47.15625 -117.84375 C 53.957031 -119.125 60.160156 -119.765625 65.765625 -119.765625 C 77.285156 -119.765625 86.765625 -118.003906 94.203125 -114.484375 C 101.640625 -110.960938 107.195312 -105.640625 110.875 -98.515625 C 114.5625 -91.398438 116.40625 -82.242188 116.40625 -71.046875 L 116.40625 -13.4375 C 116.40625 -8.476562 115.203125 -4.675781 112.796875 -2.03125 C 110.398438 0.601562 106.960938 1.921875 102.484375 1.921875 C 98.003906 1.921875 94.519531 0.601562 92.03125 -2.03125 C 89.550781 -4.675781 88.3125 -8.476562 88.3125 -13.4375 L 88.3125 -24.953125 L 90.234375 -24.953125 C 89.117188 -19.359375 86.921875 -14.519531 83.640625 -10.4375 C 80.359375 -6.351562 76.238281 -3.191406 71.28125 -0.953125 C 66.320312 1.285156 60.640625 2.40625 54.234375 2.40625 Z M 54.234375 2.40625 "/></g></g></g><g fill="#000000" fill-opacity="1"><g transform="translate(673.078064, 1294.646364)"><g><path d="M 30.484375 1.921875 C 25.679688 1.921875 22 0.601562 19.4375 -2.03125 C 16.875 -4.675781 15.59375 -8.476562 15.59375 -13.4375 L 15.59375 -104.15625 C 15.59375 -109.113281 16.875 -112.875 19.4375 -115.4375 C 22 -118 25.597656 -119.28125 30.234375 -119.28125 C 34.878906 -119.28125 38.476562 -118 41.03125 -115.4375 C 43.59375 -112.875 44.875 -109.113281 44.875 -104.15625 L 44.875 -87.84375 L 42.234375 -93.84375 C 45.753906 -102.320312 51.234375 -108.757812 58.671875 -113.15625 C 66.117188 -117.5625 74.5625 -119.765625 84 -119.765625 C 93.4375 -119.765625 101.195312 -118.003906 107.28125 -114.484375 C 113.363281 -110.960938 117.921875 -105.640625 120.953125 -98.515625 C 123.992188 -91.398438 125.515625 -82.398438 125.515625 -71.515625 L 125.515625 -13.4375 C 125.515625 -8.476562 124.234375 -4.675781 121.671875 -2.03125 C 119.117188 0.601562 115.441406 1.921875 110.640625 1.921875 C 105.835938 1.921875 102.113281 0.601562 99.46875 -2.03125 C 96.832031 -4.675781 95.515625 -8.476562 95.515625 -13.4375 L 95.515625 -70.078125 C 95.515625 -79.203125 93.796875 -85.84375 90.359375 -90 C 86.921875 -94.15625 81.601562 -96.234375 74.40625 -96.234375 C 65.601562 -96.234375 58.597656 -93.472656 53.390625 -87.953125 C 48.191406 -82.441406 45.59375 -75.125 45.59375 -66 L 45.59375 -13.4375 C 45.59375 -3.195312 40.554688 1.921875 30.484375 1.921875 Z M 30.484375 1.921875 "/></g></g></g><g fill="#000000" fill-opacity="1"><g transform="translate(864.837815, 1294.646364)"><g><path d="M 54.234375 2.40625 C 45.753906 2.40625 38.191406 0.765625 31.546875 -2.515625 C 24.910156 -5.796875 19.710938 -10.234375 15.953125 -15.828125 C 12.191406 -21.429688 10.3125 -27.753906 10.3125 -34.796875 C 10.3125 -43.441406 12.550781 -50.28125 17.03125 -55.3125 C 21.519531 -60.351562 28.800781 -63.992188 38.875 -66.234375 C 48.957031 -68.472656 62.476562 -69.59375 79.4375 -69.59375 L 91.4375 -69.59375 L 91.4375 -52.3125 L 79.6875 -52.3125 C 69.757812 -52.3125 61.835938 -51.832031 55.921875 -50.875 C 50.003906 -49.914062 45.800781 -48.273438 43.3125 -45.953125 C 40.832031 -43.640625 39.59375 -40.398438 39.59375 -36.234375 C 39.59375 -30.953125 41.429688 -26.628906 45.109375 -23.265625 C 48.796875 -19.910156 53.921875 -18.234375 60.484375 -18.234375 C 65.765625 -18.234375 70.441406 -19.472656 74.515625 -21.953125 C 78.597656 -24.441406 81.835938 -27.84375 84.234375 -32.15625 C 86.640625 -36.476562 87.84375 -41.441406 87.84375 -47.046875 L 87.84375 -74.640625 C 87.84375 -82.640625 86.082031 -88.398438 82.5625 -91.921875 C 79.039062 -95.441406 73.117188 -97.203125 64.796875 -97.203125 C 60.160156 -97.203125 55.160156 -96.640625 49.796875 -95.515625 C 44.441406 -94.398438 38.800781 -92.484375 32.875 -89.765625 C 29.832031 -88.316406 27.148438 -87.910156 24.828125 -88.546875 C 22.515625 -89.191406 20.71875 -90.515625 19.4375 -92.515625 C 18.15625 -94.515625 17.515625 -96.710938 17.515625 -99.109375 C 17.515625 -101.515625 18.15625 -103.878906 19.4375 -106.203125 C 20.71875 -108.523438 22.878906 -110.242188 25.921875 -111.359375 C 33.273438 -114.398438 40.351562 -116.5625 47.15625 -117.84375 C 53.957031 -119.125 60.160156 -119.765625 65.765625 -119.765625 C 77.285156 -119.765625 86.765625 -118.003906 94.203125 -114.484375 C 101.640625 -110.960938 107.195312 -105.640625 110.875 -98.515625 C 114.5625 -91.398438 116.40625 -82.242188 116.40625 -71.046875 L 116.40625 -13.4375 C 116.40625 -8.476562 115.203125 -4.675781 112.796875 -2.03125 C 110.398438 0.601562 106.960938 1.921875 102.484375 1.921875 C 98.003906 1.921875 94.519531 0.601562 92.03125 -2.03125 C 89.550781 -4.675781 88.3125 -8.476562 88.3125 -13.4375 L 88.3125 -24.953125 L 90.234375 -24.953125 C 89.117188 -19.359375 86.921875 -14.519531 83.640625 -10.4375 C 80.359375 -6.351562 76.238281 -3.191406 71.28125 -0.953125 C 66.320312 1.285156 60.640625 2.40625 54.234375 2.40625 Z M 54.234375 2.40625 "/></g></g></g><g fill="#000000" fill-opacity="1"><g transform="translate(1047.477537, 1294.646364)"><g><path d="M 83.28125 2.40625 C 73.363281 2.40625 64.679688 -0.0703125 57.234375 -5.03125 C 49.796875 -10 44.878906 -16.640625 42.484375 -24.953125 L 45.125 -30.953125 L 45.125 -13.4375 C 45.125 -8.476562 43.84375 -4.675781 41.28125 -2.03125 C 38.71875 0.601562 35.117188 1.921875 30.484375 1.921875 C 25.679688 1.921875 22 0.601562 19.4375 -2.03125 C 16.875 -4.675781 15.59375 -8.476562 15.59375 -13.4375 L 15.59375 -156 C 15.59375 -160.957031 16.875 -164.71875 19.4375 -167.28125 C 22 -169.84375 25.679688 -171.125 30.484375 -171.125 C 35.285156 -171.125 39.003906 -169.84375 41.640625 -167.28125 C 44.273438 -164.71875 45.59375 -160.957031 45.59375 -156 L 45.59375 -93.59375 L 42.71875 -93.59375 C 45.28125 -101.4375 50.238281 -107.757812 57.59375 -112.5625 C 64.957031 -117.363281 73.519531 -119.765625 83.28125 -119.765625 C 93.675781 -119.765625 102.710938 -117.28125 110.390625 -112.3125 C 118.078125 -107.351562 124.078125 -100.351562 128.390625 -91.3125 C 132.710938 -82.28125 134.875 -71.441406 134.875 -58.796875 C 134.875 -46.316406 132.710938 -35.476562 128.390625 -26.28125 C 124.078125 -17.082031 118.039062 -10 110.28125 -5.03125 C 102.519531 -0.0703125 93.519531 2.40625 83.28125 2.40625 Z M 74.875 -20.40625 C 80.800781 -20.40625 86.003906 -21.84375 90.484375 -24.71875 C 94.960938 -27.601562 98.441406 -31.882812 100.921875 -37.5625 C 103.398438 -43.238281 104.640625 -50.316406 104.640625 -58.796875 C 104.640625 -71.597656 101.914062 -81.15625 96.46875 -87.46875 C 91.03125 -93.789062 83.832031 -96.953125 74.875 -96.953125 C 68.957031 -96.953125 63.757812 -95.550781 59.28125 -92.75 C 54.800781 -89.957031 51.320312 -85.71875 48.84375 -80.03125 C 46.363281 -74.351562 45.125 -67.273438 45.125 -58.796875 C 45.125 -46.160156 47.84375 -36.601562 53.28125 -30.125 C 58.71875 -23.644531 65.914062 -20.40625 74.875 -20.40625 Z M 74.875 -20.40625 "/></g></g></g><g fill="#000000" fill-opacity="1"><g transform="translate(1242.837228, 1294.646364)"><g><path d="M 58.078125 2.40625 C 48.316406 2.40625 40.234375 0.601562 33.828125 -3 C 27.429688 -6.601562 22.671875 -12.003906 19.546875 -19.203125 C 16.429688 -26.398438 14.875 -35.359375 14.875 -46.078125 L 14.875 -104.15625 C 14.875 -109.28125 16.15625 -113.082031 18.71875 -115.5625 C 21.28125 -118.039062 24.960938 -119.28125 29.765625 -119.28125 C 34.554688 -119.28125 38.269531 -118.039062 40.90625 -115.5625 C 43.550781 -113.082031 44.875 -109.28125 44.875 -104.15625 L 44.875 -45.59375 C 44.875 -37.28125 46.550781 -31.125 49.90625 -27.125 C 53.269531 -23.125 58.632812 -21.125 66 -21.125 C 74 -21.125 80.554688 -23.882812 85.671875 -29.40625 C 90.796875 -34.925781 93.359375 -42.242188 93.359375 -51.359375 L 93.359375 -104.15625 C 93.359375 -109.28125 94.640625 -113.082031 97.203125 -115.5625 C 99.765625 -118.039062 103.441406 -119.28125 108.234375 -119.28125 C 113.035156 -119.28125 116.753906 -118.039062 119.390625 -115.5625 C 122.035156 -113.082031 123.359375 -109.28125 123.359375 -104.15625 L 123.359375 -13.4375 C 123.359375 -3.195312 118.476562 1.921875 108.71875 1.921875 C 104.082031 1.921875 100.484375 0.601562 97.921875 -2.03125 C 95.359375 -4.675781 94.078125 -8.476562 94.078125 -13.4375 L 94.078125 -31.6875 L 97.4375 -24.484375 C 94.082031 -15.835938 89.003906 -9.191406 82.203125 -4.546875 C 75.398438 0.0859375 67.359375 2.40625 58.078125 2.40625 Z M 58.078125 2.40625 "/></g></g></g></svg>